<svg width="22" height="20" viewBox="0 0 22 20" fill="none" xmlns="http://www.w3.org/2000/svg">
<path d="M11.5091 18.3337H4.42578C2.65495 18.3337 1.76953 17.5003 1.76953 15.8337V9.16699C1.76953 7.50033 2.65495 6.66699 4.42578 6.66699H8.85287V15.8337C8.85287 17.5003 9.73828 18.3337 11.5091 18.3337Z" stroke="#FAFAFA" stroke-width="1.5" stroke-miterlimit="10" stroke-linecap="round" stroke-linejoin="round"/>
<path d="M8.95025 3.33301C8.87941 3.58301 8.85286 3.85801 8.85286 4.16634V6.66634H4.42578V4.99967C4.42578 4.08301 5.22266 3.33301 6.19661 3.33301H8.95025Z" stroke="#FAFAFA" stroke-width="1.5" stroke-miterlimit="10" stroke-linecap="round" stroke-linejoin="round"/>
<path d="M12.3945 6.66699V10.8337" stroke="#FAFAFA" stroke-width="1.5" stroke-miterlimit="10" stroke-linecap="round" stroke-linejoin="round"/>
<path d="M15.9375 6.66699V10.8337" stroke="#FAFAFA" stroke-width="1.5" stroke-miterlimit="10" stroke-linecap="round" stroke-linejoin="round"/>
<path d="M15.0508 14.167H13.2799C12.793 14.167 12.3945 14.542 12.3945 15.0003V18.3337H15.9362V15.0003C15.9362 14.542 15.5378 14.167 15.0508 14.167Z" stroke="#FAFAFA" stroke-width="1.5" stroke-miterlimit="10" stroke-linecap="round" stroke-linejoin="round"/>
<path d="M5.3125 10.833V14.1663" stroke="#FAFAFA" stroke-width="1.5" stroke-miterlimit="10" stroke-linecap="round" stroke-linejoin="round"/>
<path d="M8.85547 15.8337V4.16699C8.85547 2.50033 9.74089 1.66699 11.5117 1.66699H16.8242C18.5951 1.66699 19.4805 2.50033 19.4805 4.16699V15.8337C19.4805 17.5003 18.5951 18.3337 16.8242 18.3337H11.5117C9.74089 18.3337 8.85547 17.5003 8.85547 15.8337Z" stroke="#FAFAFA" stroke-width="1.5" stroke-miterlimit="10" stroke-linecap="round" stroke-linejoin="round"/>
</svg>
